<svg xmlns="http://www.w3.org/2000/svg" width="100" height="100" viewBox="0 0 100 100">
  <!-- 印章背景 -->
  <defs>
    <filter id="roughPaper" x="-20%" y="-20%" width="140%" height="140%">
      <feTurbulence type="fractalNoise" baseFrequency="0.04" numOctaves="5" seed="1" result="noise" />
      <feDisplacementMap in="SourceGraphic" in2="noise" scale="3" xChannelSelector="R" yChannelSelector="G" />
    </filter>
    
    <filter id="inkEffect" x="-20%" y="-20%" width="140%" height="140%">
      <feTurbulence type="turbulence" baseFrequency="0.05" numOctaves="2" result="turbulence" />
      <feDisplacementMap in="SourceGraphic" in2="turbulence" scale="5" xChannelSelector="R" yChannelSelector="G" />
    </filter>
  </defs>
  
  <!-- 印章主体 -->
  <g filter="url(#roughPaper)">
    <rect x="10" y="10" width="80" height="80" rx="5" ry="5" fill="#b71c1c" opacity="0.9" />
    
    <!-- 印章内部纹理 -->
    <rect x="15" y="15" width="70" height="70" rx="3" ry="3" fill="none" stroke="#ffebee" stroke-width="0.5" stroke-dasharray="2,1" opacity="0.7" />
    
    <!-- 中文字符：音乐 -->
    <text x="50" y="45" font-family="KaiTi, 楷体" font-size="24" text-anchor="middle" fill="#ffebee" filter="url(#inkEffect)">音乐</text>
    
    <!-- 中文字符：五行 -->
    <text x="50" y="70" font-family="KaiTi, 楷体" font-size="24" text-anchor="middle" fill="#ffebee" filter="url(#inkEffect)">五行</text>
  </g>
  
  <!-- 印章边缘不规则效果 -->
  <path d="M10,15 Q8,20 10,25 M10,40 Q7,45 10,50 M10,65 Q8,70 10,75
           M90,15 Q92,20 90,25 M90,40 Q93,45 90,50 M90,65 Q92,70 90,75
           M25,10 Q30,7 35,10 M50,10 Q55,8 60,10 M75,10 Q80,7 85,10
           M25,90 Q30,93 35,90 M50,90 Q55,92 60,90 M75,90 Q80,93 85,90" 
        stroke="#b71c1c" stroke-width="1" fill="none" opacity="0.7" />
</svg>