<svg xmlns="http://www.w3.org/2000/svg" width="100" height="100" viewBox="0 0 100 100">
  <!-- 梅花图案 -->
  <g fill="rgba(255,255,255,0.15)" stroke="rgba(255,255,255,0.3)" stroke-width="0.5">
    <!-- 中心圆 -->
    <circle cx="50" cy="50" r="5" />
    
    <!-- 花瓣 -->
    <path d="M50,45 Q60,30 50,15 Q40,30 50,45 Z" />
    <path d="M55,50 Q70,40 85,50 Q70,60 55,50 Z" />
    <path d="M50,55 Q60,70 50,85 Q40,70 50,55 Z" />
    <path d="M45,50 Q30,40 15,50 Q30,60 45,50 Z" />
    
    <!-- 装饰线 -->
    <path d="M50,10 Q52,5 50,0 Q48,5 50,10" stroke-width="0.3" />
    <path d="M90,50 Q95,52 100,50 Q95,48 90,50" stroke-width="0.3" />
    <path d="M50,90 Q52,95 50,100 Q48,95 50,90" stroke-width="0.3" />
    <path d="M10,50 Q5,52 0,50 Q5,48 10,50" stroke-width="0.3" />
  </g>
</svg>