<svg xmlns="http://www.w3.org/2000/svg" width="200" height="200" viewBox="0 0 200 200">
  <!-- 中国传统水墨风格图案 -->
  <defs>
    <filter id="inkBlot" x="-50%" y="-50%" width="200%" height="200%">
      <feTurbulence type="fractalNoise" baseFrequency="0.01" numOctaves="3" result="noise" />
      <feDisplacementMap in="SourceGraphic" in2="noise" scale="20" xChannelSelector="R" yChannelSelector="G" />
      <feGaussianBlur stdDeviation="2" />
    </filter>
    
    <pattern id="inkWashPattern" patternUnits="userSpaceOnUse" width="200" height="200">
      <!-- 主要水墨效果 -->
      <circle cx="100" cy="100" r="50" fill="rgba(0,0,0,0.1)" filter="url(#inkBlot)" />
      <circle cx="50" cy="50" r="30" fill="rgba(0,0,0,0.08)" filter="url(#inkBlot)" />
      <circle cx="150" cy="150" r="40" fill="rgba(0,0,0,0.06)" filter="url(#inkBlot)" />
      <circle cx="150" cy="50" r="25" fill="rgba(0,0,0,0.07)" filter="url(#inkBlot)" />
      <circle cx="50" cy="150" r="35" fill="rgba(0,0,0,0.05)" filter="url(#inkBlot)" />
      
      <!-- 水墨笔触 -->
      <path d="M20,100 Q60,80 100,100 Q140,120 180,100" stroke="rgba(0,0,0,0.1)" stroke-width="10" fill="none" filter="url(#inkBlot)" />
      <path d="M100,20 Q80,60 100,100 Q120,140 100,180" stroke="rgba(0,0,0,0.08)" stroke-width="8" fill="none" filter="url(#inkBlot)" />
    </pattern>
  </defs>
  
  <!-- 背景填充 -->
  <rect width="200" height="200" fill="url(#inkWashPattern)" />
  
  <!-- 装饰性水墨元素 -->
  <g opacity="0.7" filter="url(#inkBlot)">
    <path d="M30,30 Q60,10 90,30 Q120,50 150,30 Q180,10 190,40" stroke="rgba(0,0,0,0.15)" stroke-width="5" fill="none" />
    <path d="M10,160 Q40,140 70,160 Q100,180 130,160 Q160,140 190,160" stroke="rgba(0,0,0,0.12)" stroke-width="4" fill="none" />
  </g>
  
  <!-- 中心装饰 -->
  <circle cx="100" cy="100" r="20" fill="rgba(0,0,0,0.05)" filter="url(#inkBlot)" />
</svg>