<svg xmlns="http://www.w3.org/2000/svg" width="500" height="500" viewBox="0 0 500 500">
  <!-- 五行元素图标 -->
  <defs>
    <!-- 水墨效果滤镜 -->
    <filter id="inkBlot" x="-20%" y="-20%" width="140%" height="140%">
      <feTurbulence type="fractalNoise" baseFrequency="0.05" numOctaves="3" result="noise" />
      <feDisplacementMap in="SourceGraphic" in2="noise" scale="5" xChannelSelector="R" yChannelSelector="G" />
    </filter>
    
    <!-- 金属效果 -->
    <linearGradient id="metalGradient" x1="0%" y1="0%" x2="100%" y2="100%">
      <stop offset="0%" stop-color="#ffffff" stop-opacity="0.8" />
      <stop offset="50%" stop-color="#f0f0f0" stop-opacity="0.5" />
      <stop offset="100%" stop-color="#e0e0e0" stop-opacity="0.8" />
    </linearGradient>
    
    <!-- 木纹效果 -->
    <pattern id="woodPattern" patternUnits="userSpaceOnUse" width="100" height="100">
      <rect width="100" height="100" fill="#8B4513" opacity="0.2" />
      <path d="M0,20 Q50,15 100,20 M0,40 Q50,45 100,40 M0,60 Q50,55 100,60 M0,80 Q50,85 100,80" 
            stroke="#5D4037" stroke-width="2" fill="none" opacity="0.3" />
    </pattern>
    
    <!-- 水波纹效果 -->
    <pattern id="waterPattern" patternUnits="userSpaceOnUse" width="100" height="100">
      <path d="M0,20 Q25,10 50,20 Q75,30 100,20 M0,50 Q25,40 50,50 Q75,60 100,50 M0,80 Q25,70 50,80 Q75,90 100,80" 
            stroke="#0D47A1" stroke-width="2" fill="none" opacity="0.3" />
    </pattern>
    
    <!-- 火焰效果 -->
    <radialGradient id="fireGradient" cx="50%" cy="50%" r="50%" fx="50%" fy="50%">
      <stop offset="0%" stop-color="#FFEB3B" stop-opacity="0.8" />
      <stop offset="70%" stop-color="#FF5722" stop-opacity="0.6" />
      <stop offset="100%" stop-color="#BF360C" stop-opacity="0.4" />
    </radialGradient>
    
    <!-- 土壤效果 -->
    <pattern id="earthPattern" patternUnits="userSpaceOnUse" width="100" height="100">
      <rect width="100" height="100" fill="#795548" opacity="0.2" />
      <circle cx="20" cy="20" r="2" fill="#5D4037" opacity="0.3" />
      <circle cx="40" cy="60" r="3" fill="#5D4037" opacity="0.3" />
      <circle cx="70" cy="30" r="2" fill="#5D4037" opacity="0.3" />
      <circle cx="80" cy="70" r="3" fill="#5D4037" opacity="0.3" />
    </pattern>
  </defs>
  
  <!-- 金 (Metal) -->
  <g transform="translate(250, 100)" filter="url(#inkBlot)">
    <circle cx="0" cy="0" r="40" fill="url(#metalGradient)" stroke="#BDBDBD" stroke-width="2" />
    <path d="M-20,-20 L20,20 M-20,20 L20,-20" stroke="#757575" stroke-width="3" stroke-linecap="round" />
    <text x="0" y="0" font-family="KaiTi, 楷体" font-size="30" text-anchor="middle" dominant-baseline="middle" fill="#424242">金</text>
  </g>
  
  <!-- 木 (Wood) -->
  <g transform="translate(400, 250)" filter="url(#inkBlot)">
    <circle cx="0" cy="0" r="40" fill="url(#woodPattern)" stroke="#33691E" stroke-width="2" />
    <path d="M0,-25 L0,25 M-15,-15 L15,15" stroke="#33691E" stroke-width="3" stroke-linecap="round" />
    <text x="0" y="0" font-family="KaiTi, 楷体" font-size="30" text-anchor="middle" dominant-baseline="middle" fill="#33691E">木</text>
  </g>
  
  <!-- 水 (Water) -->
  <g transform="translate(325, 400)" filter="url(#inkBlot)">
    <circle cx="0" cy="0" r="40" fill="url(#waterPattern)" stroke="#0D47A1" stroke-width="2" />
    <path d="M-20,0 Q0,20 20,0 Q0,-20 -20,0" stroke="#0D47A1" stroke-width="3" fill="none" />
    <text x="0" y="0" font-family="KaiTi, 楷体" font-size="30" text-anchor="middle" dominant-baseline="middle" fill="#0D47A1">水</text>
  </g>
  
  <!-- 火 (Fire) -->
  <g transform="translate(175, 400)" filter="url(#inkBlot)">
    <circle cx="0" cy="0" r="40" fill="url(#fireGradient)" stroke="#BF360C" stroke-width="2" />
    <path d="M0,-20 Q10,0 0,20 Q-10,0 0,-20" stroke="#BF360C" stroke-width="3" fill="none" />
    <text x="0" y="0" font-family="KaiTi, 楷体" font-size="30" text-anchor="middle" dominant-baseline="middle" fill="#BF360C">火</text>
  </g>
  
  <!-- 土 (Earth) -->
  <g transform="translate(100, 250)" filter="url(#inkBlot)">
    <circle cx="0" cy="0" r="40" fill="url(#earthPattern)" stroke="#5D4037" stroke-width="2" />
    <rect x="-15" y="-15" width="30" height="30" stroke="#5D4037" stroke-width="3" fill="none" />
    <text x="0" y="0" font-family="KaiTi, 楷体" font-size="30" text-anchor="middle" dominant-baseline="middle" fill="#5D4037">土</text>
  </g>
  
  <!-- 连接线 -->
  <g stroke="rgba(0,0,0,0.2)" stroke-width="1" stroke-dasharray="5,5" fill="none">
    <path d="M250,100 L400,250 L325,400 L175,400 L100,250 Z" />
  </g>
  
  <!-- 中心 -->
  <circle cx="250" cy="250" r="30" fill="rgba(255,255,255,0.7)" stroke="rgba(0,0,0,0.3)" stroke-width="1.5" />
  <circle cx="250" cy="250" r="25" fill="none" stroke="rgba(0,0,0,0.1)" stroke-width="0.5" stroke-dasharray="3,3" />
  <text x="250" y="250" font-family="KaiTi, 楷体" font-size="28" text-anchor="middle" dominant-baseline="middle" fill="rgba(0,0,0,0.8)" filter="url(#inkBlot)" style="text-shadow: 0 0 3px rgba(255,255,255,0.8);">五行</text>
</svg>